<?xml version="1.0" encoding="UTF-8"?>
<svg width="469.23mm" height="246.52mm" version="1.1" viewBox="0 0 1662.6404 873.48856" xmlns="http://www.w3.org/2000/svg">
 <g transform="translate(426.14 -60.934)">
  <rect x="-426.14" y="60.934" width="1662.6" height="873.49" ry="1.5696" color="#000000" color-rendering="auto" fill="#aed581" image-rendering="auto" shape-rendering="auto" solid-color="#000000" style="isolation:auto;mix-blend-mode:normal"/>
  <path transform="translate(-426.14 60.934)" d="m1662.6 3.7754l-1654.1 869.71h1652.6c0.8696 0 1.5703-0.6988 1.5703-1.5684v-868.14z" fill="#9ccc65" fill-rule="evenodd"/>
  <path d="m-111.95 193.65c-29.826 53.91-85.381 89.423-105.29 150.41-11.003 45.659 20.014 92.484 59.474 108.05 53.441 24.783 125.42 6.109 154.05-50.612 17.307-35.534 5.6523-79.463-17.434-108.73-25.394-38.119-59.099-68.861-88.106-103.34-0.89786 1.407-1.7957 2.814-2.6936 4.221z" color="#000000" color-rendering="auto" fill="#7cb342" image-rendering="auto" shape-rendering="auto" solid-color="#000000" style="isolation:auto;mix-blend-mode:normal"/>
  <ellipse cx="-54.9" cy="274.31" rx="37.444" ry="37.56" color="#000000" color-rendering="auto" fill="#7cb342" image-rendering="auto" shape-rendering="auto" solid-color="#000000" style="isolation:auto;mix-blend-mode:normal"/>
  <path d="m-117.25 194.46c-28.869 52.401-82.642 86.921-101.91 146.2-10.65 44.381 19.372 89.896 57.567 105.03 51.727 24.089 121.4 5.938 149.11-49.195 16.752-34.54 5.471-77.24-16.875-105.69-24.579-37.052-57.203-66.934-85.279-100.45-0.86907 1.3676-1.7381 2.7352-2.6072 4.1028z" color="#000000" color-rendering="auto" fill="#fff" image-rendering="auto" shape-rendering="auto" solid-color="#000000" style="isolation:auto;mix-blend-mode:normal"/>
  <path d="m-18.861 358.42c2e-5 45.164-42.062 81.776-93.947 81.776-51.886 0-93.947-36.612-93.947-81.776 0-45.163 64.293-95.509 93.947-142.95 42.563 47.442 93.947 97.788 93.947 142.95z" color="#000000" color-rendering="auto" fill="#f44336" image-rendering="auto" shape-rendering="auto" solid-color="#000000" style="isolation:auto;mix-blend-mode:normal"/>
  <path d="m-123.25 295.19-37.466 93.924 51.007 51.007c45.619-1.2897 83.023-30.865 89.764-69.247l-75.688-75.684h-27.618z" fill="#d32f2f"/>
  <path d="m-58.95 389.12h-27.047l-6.28-16.377h-34.968l-6.7082 16.377h-26.762l37.466-93.925h27.618l36.681 93.925zm-40.178-34.955-10.491-29.932-10.633 29.932h21.124z" fill="#d32f2f"/>
  <text transform="scale(1.0184 .98194)" x="-158.79272" y="396.27359" fill="#ffffff" font-family="Aharoni" font-size="143.51px" font-weight="bold" letter-spacing="0px" stroke-width="1px" word-spacing="0px" style="line-height:125%" xml:space="preserve"><tspan x="-158.79272" y="396.27359">A</tspan></text>
  <circle cx="-56.833" cy="272.5" r="35.705" color="#000000" color-rendering="auto" fill="#fff" image-rendering="auto" shape-rendering="auto" solid-color="#000000" style="isolation:auto;mix-blend-mode:normal"/>
  <rect x="-65.686" y="247.25" width="17.706" height="50.494" ry="7.3774" color="#000000" color-rendering="auto" fill="#f44336" image-rendering="auto" shape-rendering="auto" solid-color="#000000" style="isolation:auto;mix-blend-mode:normal"/>
  <rect transform="rotate(90)" x="263.64" y="31.586" width="17.706" height="50.494" ry="7.3774" color="#000000" color-rendering="auto" fill="#f44336" image-rendering="auto" shape-rendering="auto" solid-color="#000000" style="isolation:auto;mix-blend-mode:normal"/>
  <path d="m234.3 193.65c-29.826 53.91-85.381 89.423-105.29 150.41-11.003 45.659 20.014 92.484 59.474 108.05 53.441 24.783 125.42 6.109 154.05-50.612 17.307-35.534 5.6523-79.463-17.434-108.73-25.394-38.119-59.099-68.861-88.106-103.34-0.89786 1.407-1.7957 2.814-2.6936 4.221z" color="#000000" color-rendering="auto" fill="#7cb342" image-rendering="auto" shape-rendering="auto" solid-color="#000000" style="isolation:auto;mix-blend-mode:normal"/>
  <ellipse cx="291.35" cy="274.31" rx="37.444" ry="37.56" color="#000000" color-rendering="auto" fill="#7cb342" image-rendering="auto" shape-rendering="auto" solid-color="#000000" style="isolation:auto;mix-blend-mode:normal"/>
  <path d="m228.99 194.46c-28.869 52.401-82.642 86.921-101.91 146.2-10.65 44.381 19.372 89.896 57.567 105.03 51.727 24.089 121.4 5.938 149.11-49.195 16.752-34.54 5.471-77.24-16.875-105.69-24.579-37.052-57.203-66.934-85.279-100.45-0.86908 1.3676-1.7382 2.7352-2.6072 4.1028z" color="#000000" color-rendering="auto" fill="#fff" image-rendering="auto" shape-rendering="auto" solid-color="#000000" style="isolation:auto;mix-blend-mode:normal"/>
  <path d="m327.39 358.42c2e-5 45.164-42.062 81.776-93.947 81.776s-93.947-36.612-93.947-81.776c-2e-5 -45.163 64.293-95.509 93.947-142.95 42.563 47.442 93.947 97.788 93.947 142.95z" color="#000000" color-rendering="auto" fill="#f44336" image-rendering="auto" shape-rendering="auto" solid-color="#000000" style="isolation:auto;mix-blend-mode:normal"/>
  <circle cx="289.41" cy="272.5" r="35.705" color="#000000" color-rendering="auto" fill="#fff" image-rendering="auto" shape-rendering="auto" solid-color="#000000" style="isolation:auto;mix-blend-mode:normal"/>
  <rect x="280.56" y="247.25" width="17.706" height="50.494" ry="7.3774" color="#000000" color-rendering="auto" fill="#f44336" image-rendering="auto" shape-rendering="auto" solid-color="#000000" style="isolation:auto;mix-blend-mode:normal"/>
  <rect transform="rotate(90)" x="263.64" y="-314.66" width="17.706" height="50.494" ry="7.3774" color="#000000" color-rendering="auto" fill="#f44336" image-rendering="auto" shape-rendering="auto" solid-color="#000000" style="isolation:auto;mix-blend-mode:normal"/>
  <path d="m588.42 193.65c-29.826 53.91-85.381 89.423-105.29 150.41-11.003 45.659 20.014 92.484 59.474 108.05 53.441 24.783 125.42 6.109 154.05-50.612 17.307-35.534 5.6523-79.463-17.434-108.73-25.394-38.119-59.099-68.861-88.106-103.34-0.89787 1.407-1.7958 2.814-2.6936 4.221z" color="#000000" color-rendering="auto" fill="#7cb342" image-rendering="auto" shape-rendering="auto" solid-color="#000000" style="isolation:auto;mix-blend-mode:normal"/>
  <ellipse cx="645.46" cy="274.31" rx="37.444" ry="37.56" color="#000000" color-rendering="auto" fill="#7cb342" image-rendering="auto" shape-rendering="auto" solid-color="#000000" style="isolation:auto;mix-blend-mode:normal"/>
  <path d="m583.11 194.46c-28.869 52.401-82.642 86.921-101.91 146.2-10.65 44.381 19.372 89.896 57.567 105.03 51.727 24.089 121.4 5.938 149.11-49.195 16.752-34.54 5.471-77.24-16.875-105.69-24.579-37.052-57.203-66.934-85.279-100.45-0.86907 1.3676-1.7381 2.7352-2.6072 4.1028z" color="#000000" color-rendering="auto" fill="#fff" image-rendering="auto" shape-rendering="auto" solid-color="#000000" style="isolation:auto;mix-blend-mode:normal"/>
  <path d="m681.5 358.42c2e-5 45.164-42.062 81.776-93.947 81.776-51.886 0-93.947-36.612-93.947-81.776 0-45.163 64.293-95.509 93.947-142.95 42.563 47.442 93.947 97.788 93.947 142.95z" color="#000000" color-rendering="auto" fill="#f44336" image-rendering="auto" shape-rendering="auto" solid-color="#000000" style="isolation:auto;mix-blend-mode:normal"/>
  <circle cx="643.53" cy="272.5" r="35.705" color="#000000" color-rendering="auto" fill="#fff" image-rendering="auto" shape-rendering="auto" solid-color="#000000" style="isolation:auto;mix-blend-mode:normal"/>
  <rect x="634.68" y="247.25" width="17.706" height="50.494" ry="7.3774" color="#000000" color-rendering="auto" fill="#f44336" image-rendering="auto" shape-rendering="auto" solid-color="#000000" style="isolation:auto;mix-blend-mode:normal"/>
  <rect transform="rotate(90)" x="263.64" y="-668.78" width="17.706" height="50.494" ry="7.3774" color="#000000" color-rendering="auto" fill="#f44336" image-rendering="auto" shape-rendering="auto" solid-color="#000000" style="isolation:auto;mix-blend-mode:normal"/>
  <path d="m934.66 193.65c-29.826 53.91-85.381 89.423-105.29 150.41-11.003 45.659 20.014 92.484 59.474 108.05 53.441 24.783 125.42 6.109 154.05-50.612 17.307-35.534 5.6523-79.463-17.434-108.73-25.394-38.119-59.099-68.861-88.106-103.34-0.8979 1.407-1.7957 2.814-2.6936 4.221z" color="#000000" color-rendering="auto" fill="#7cb342" image-rendering="auto" shape-rendering="auto" solid-color="#000000" style="isolation:auto;mix-blend-mode:normal"/>
  <ellipse cx="991.71" cy="274.31" rx="37.444" ry="37.56" color="#000000" color-rendering="auto" fill="#7cb342" image-rendering="auto" shape-rendering="auto" solid-color="#000000" style="isolation:auto;mix-blend-mode:normal"/>
  <path d="m929.36 194.46c-28.869 52.401-82.642 86.921-101.91 146.2-10.65 44.381 19.372 89.896 57.567 105.03 51.727 24.089 121.4 5.938 149.11-49.195 16.752-34.54 5.4709-77.24-16.875-105.69-24.579-37.052-57.203-66.934-85.279-100.45-0.8691 1.3676-1.7381 2.7352-2.6072 4.1028z" color="#000000" color-rendering="auto" fill="#fff" image-rendering="auto" shape-rendering="auto" solid-color="#000000" style="isolation:auto;mix-blend-mode:normal"/>
  <path d="m1027.8 358.42c0 45.164-42.062 81.776-93.947 81.776-51.886 0-93.947-36.612-93.947-81.776 0-45.163 64.293-95.509 93.947-142.95 42.563 47.442 93.947 97.788 93.947 142.95z" color="#000000" color-rendering="auto" fill="#f44336" image-rendering="auto" shape-rendering="auto" solid-color="#000000" style="isolation:auto;mix-blend-mode:normal"/>
  <path d="m933.71 307.2c-17.127 0-30.708 5.5811-40.747 16.748-3.9964 4.4387-7.1858 9.7877-9.5646 16.048-2.3788 6.2141-3.5683 12.292-3.5683 18.225 0 12.989 4.403 24.387 13.205 34.199 0.6222 0.69214 1.2587 1.3626 1.9079 2.0119l45.528 45.528c42.294-2.5831 76.865-29.511 85.303-64.804l-53.213-53.213c-9.8295-9.8295-22.78-14.743-38.85-14.743z" fill="#d32f2f"/>
  <path d="m933.71 307.2c-17.127 0-30.708 5.5811-40.747 16.748-3.9964 4.4387-7.1858 9.7877-9.5646 16.048-2.3788 6.2141-3.5683 12.292-3.5683 18.225 0 12.989 4.403 24.387 13.205 34.199 10.039 11.167 23.596 16.751 40.675 16.751 17.127 0 30.712-5.5847 40.751-16.751 8.8016-9.8118 13.201-21.21 13.201-34.199 0-13.036-4.3994-24.462-13.201-34.274-10.038-11.167-23.623-16.748-40.751-16.748zm0 24.179c8.421 0 15.441 3.128 21.055 9.3888 4.377 4.9059 6.5629 10.726 6.5629 17.454 0 6.5879-2.1859 12.38-6.5629 17.379-5.4712 6.2608-12.491 9.3924-21.055 9.3924s-15.556-3.1566-20.98-9.4641c-4.377-5.0928-6.5664-10.86-6.5664-17.307 0-3.1304 0.5724-6.2156 1.7142-9.2525 1.9982-5.3264 5.353-9.5792 10.063-12.756 4.7101-3.2239 9.9645-4.8343 15.769-4.8343z" fill="#fff"/>
  <circle cx="989.78" cy="272.5" r="35.705" color="#000000" color-rendering="auto" fill="#fff" image-rendering="auto" shape-rendering="auto" solid-color="#000000" style="isolation:auto;mix-blend-mode:normal"/>
  <rect x="980.93" y="247.25" width="17.706" height="50.494" ry="7.3774" color="#000000" color-rendering="auto" fill="#f44336" image-rendering="auto" shape-rendering="auto" solid-color="#000000" style="isolation:auto;mix-blend-mode:normal"/>
  <rect transform="rotate(90)" x="263.64" y="-1015" width="17.706" height="50.494" ry="7.3774" color="#000000" color-rendering="auto" fill="#f44336" image-rendering="auto" shape-rendering="auto" solid-color="#000000" style="isolation:auto;mix-blend-mode:normal"/>
  <path d="m198.86 301.47v93.928l44.355 44.355c40.638-3.6584 73.566-29.868 82.032-64.004l-67.031-67.031-21.675-7.2478h-37.681z" fill="#d32f2f"/>
  <path d="m273.08 368.7q0 10.528-6.2087 17.134-8.9919 9.5645-27.404 9.5645h-40.606v-93.925h37.68q27.404 0 27.404 24.496 0 7.3626-2.9973 12.317-2.4978 4.1974-7.7073 7.1562 11.704 2.3395 15.986 9.014 3.8537 6.124 3.8537 14.244zm-32.542-39.496q0-6.3993-5.9946-8.4635-2.1409-0.68808-5.7092-0.68808h-4.6387v18.372h4.6387q6.5655 0 9.4201-3.0964 2.2836-2.4771 2.2836-6.124zm7.2078 37.845q0-8.1883-8.7778-9.6333-2.7832-0.41284-9.5628-0.41284h-5.2096v19.817h5.6378q9.7055 0 13.559-2.2019 4.3532-2.4772 4.3532-7.569z" fill="#fff"/>
  <path d="m552.66 316.11-22.629 81.01 41.93 41.93c5.0758 0.73867 10.28 1.144 15.597 1.144 47.959 0 87.497-31.288 93.21-71.689l-48.318-48.318c-2.7177-2.7177-6.5-4.0776-11.347-4.0776h-22.758v29.006l-29.006-29.006h-16.68z" fill="#d32f2f"/>
  <path d="m552.66 316.11-22.629 81.01h16.163l4.0525-14.126h21.119l3.7943 14.126h16.332l-22.152-81.01h-16.68zm45.685 0v81.01h24.526c7.4133 0 12.93-2.7525 16.551-8.252 2.4998-3.7982 3.7476-8.722 3.7476-14.775 0-4.6686-0.77585-8.7653-2.3275-12.287-1.724-3.8378-4.9419-6.4298-9.6542-7.775 2.0976-1.7013 3.6493-3.7585 4.655-6.1719 1.2068-2.8487 1.8111-6.3891 1.8111-10.622 0-14.085-5.5168-21.127-16.551-21.127h-22.758zm15.303 16.023h2.8009c1.4367 0 2.5844 0.19966 3.4464 0.59532 2.4136 1.1869 3.6221 3.6185 3.6221 7.298 0 2.0969-0.46122 3.8582-1.3807 5.2825-1.1494 1.7804-3.0443 2.6718-5.6878 2.6718h-2.8009v-15.848zm-52.754 9.0194 6.3333 25.817h-12.756l6.423-25.817zm52.754 22.852h3.1451c2.7297 0 4.6569 0.1177 5.7775 0.35504 3.5342 0.83086 5.3005 3.6012 5.3005 8.3094 0 2.9278-0.87596 5.1026-2.6287 6.527-1.5516 1.2661-4.2832 1.9007-8.191 1.9007h-3.4034v-17.092z" fill="#fff"/>
  <path d="m-111.95 547.77c-29.826 53.91-85.381 89.423-105.29 150.41-11.003 45.659 20.014 92.484 59.474 108.05 53.441 24.783 125.42 6.109 154.05-50.612 17.307-35.534 5.6523-79.463-17.434-108.73-25.394-38.119-59.099-68.861-88.106-103.34-0.89786 1.407-1.7957 2.814-2.6936 4.221z" color="#000000" color-rendering="auto" fill="#7cb342" image-rendering="auto" shape-rendering="auto" solid-color="#000000" style="isolation:auto;mix-blend-mode:normal"/>
  <ellipse cx="-54.9" cy="628.43" rx="37.444" ry="37.56" color="#000000" color-rendering="auto" fill="#7cb342" image-rendering="auto" shape-rendering="auto" solid-color="#000000" style="isolation:auto;mix-blend-mode:normal"/>
  <path d="m-117.25 548.58c-28.869 52.401-82.642 86.921-101.91 146.2-10.65 44.381 19.372 89.896 57.567 105.03 51.727 24.089 121.4 5.938 149.11-49.195 16.752-34.54 5.471-77.24-16.875-105.69-24.579-37.052-57.203-66.934-85.279-100.45-0.86907 1.3676-1.7381 2.7352-2.6072 4.1028z" color="#000000" color-rendering="auto" fill="#fff" image-rendering="auto" shape-rendering="auto" solid-color="#000000" style="isolation:auto;mix-blend-mode:normal"/>
  <path d="m-18.861 712.53c2e-5 45.164-42.062 81.776-93.947 81.776-51.886 0-93.947-36.612-93.947-81.776 0-45.163 64.293-95.509 93.947-142.95 42.563 47.442 93.947 97.788 93.947 142.95z" color="#000000" color-rendering="auto" fill="#f44336" image-rendering="auto" shape-rendering="auto" solid-color="#000000" style="isolation:auto;mix-blend-mode:normal"/>
  <path d="m-123.25 649.31-37.466 93.924 51.007 51.007c45.619-1.2897 83.023-30.865 89.764-69.247l-75.688-75.684h-27.618z" fill="#d32f2f"/>
  <path d="m-58.95 743.23h-27.047l-6.28-16.377h-34.968l-6.7082 16.377h-26.762l37.466-93.925h27.618l36.681 93.925zm-40.178-34.955-10.491-29.932-10.633 29.932h21.124z" fill="#d32f2f"/>
  <text transform="scale(1.0184 .98194)" x="-158.79272" y="756.90491" fill="#ffffff" font-family="Aharoni" font-size="143.51px" font-weight="bold" letter-spacing="0px" stroke-width="1px" word-spacing="0px" style="line-height:125%" xml:space="preserve"><tspan x="-158.79272" y="756.90491">A</tspan></text>
  <circle cx="-56.833" cy="626.61" r="35.705" color="#000000" color-rendering="auto" fill="#fff" image-rendering="auto" shape-rendering="auto" solid-color="#000000" style="isolation:auto;mix-blend-mode:normal"/>
  <rect transform="rotate(90)" x="617.76" y="31.586" width="17.706" height="50.494" ry="7.3774" color="#000000" color-rendering="auto" fill="#f44336" image-rendering="auto" shape-rendering="auto" solid-color="#000000" style="isolation:auto;mix-blend-mode:normal"/>
  <path d="m234.3 547.77c-29.826 53.91-85.381 89.423-105.29 150.41-11.003 45.659 20.014 92.484 59.474 108.05 53.441 24.783 125.42 6.109 154.05-50.612 17.307-35.534 5.6523-79.463-17.434-108.73-25.394-38.119-59.099-68.861-88.106-103.34-0.89786 1.407-1.7957 2.814-2.6936 4.221z" color="#000000" color-rendering="auto" fill="#7cb342" image-rendering="auto" shape-rendering="auto" solid-color="#000000" style="isolation:auto;mix-blend-mode:normal"/>
  <ellipse cx="291.35" cy="628.43" rx="37.444" ry="37.56" color="#000000" color-rendering="auto" fill="#7cb342" image-rendering="auto" shape-rendering="auto" solid-color="#000000" style="isolation:auto;mix-blend-mode:normal"/>
  <path d="m228.99 548.58c-28.869 52.401-82.642 86.921-101.91 146.2-10.65 44.381 19.372 89.896 57.567 105.03 51.727 24.089 121.4 5.938 149.11-49.195 16.752-34.54 5.471-77.24-16.875-105.69-24.579-37.052-57.203-66.934-85.279-100.45-0.86908 1.3676-1.7382 2.7352-2.6072 4.1028z" color="#000000" color-rendering="auto" fill="#fff" image-rendering="auto" shape-rendering="auto" solid-color="#000000" style="isolation:auto;mix-blend-mode:normal"/>
  <path d="m327.39 712.53c2e-5 45.164-42.062 81.776-93.947 81.776s-93.947-36.612-93.947-81.776c-2e-5 -45.163 64.293-95.509 93.947-142.95 42.563 47.442 93.947 97.788 93.947 142.95z" color="#000000" color-rendering="auto" fill="#f44336" image-rendering="auto" shape-rendering="auto" solid-color="#000000" style="isolation:auto;mix-blend-mode:normal"/>
  <circle cx="289.41" cy="626.61" r="35.705" color="#000000" color-rendering="auto" fill="#fff" image-rendering="auto" shape-rendering="auto" solid-color="#000000" style="isolation:auto;mix-blend-mode:normal"/>
  <rect transform="rotate(90)" x="617.76" y="-314.66" width="17.706" height="50.494" ry="7.3774" color="#000000" color-rendering="auto" fill="#f44336" image-rendering="auto" shape-rendering="auto" solid-color="#000000" style="isolation:auto;mix-blend-mode:normal"/>
  <path d="m588.42 547.77c-29.826 53.91-85.381 89.423-105.29 150.41-11.003 45.659 20.014 92.484 59.474 108.05 53.441 24.783 125.42 6.109 154.05-50.612 17.307-35.534 5.6523-79.463-17.434-108.73-25.394-38.119-59.099-68.861-88.106-103.34-0.89787 1.407-1.7958 2.814-2.6936 4.221z" color="#000000" color-rendering="auto" fill="#7cb342" image-rendering="auto" shape-rendering="auto" solid-color="#000000" style="isolation:auto;mix-blend-mode:normal"/>
  <ellipse cx="645.46" cy="628.43" rx="37.444" ry="37.56" color="#000000" color-rendering="auto" fill="#7cb342" image-rendering="auto" shape-rendering="auto" solid-color="#000000" style="isolation:auto;mix-blend-mode:normal"/>
  <path d="m583.11 548.58c-28.869 52.401-82.642 86.921-101.91 146.2-10.65 44.381 19.372 89.896 57.567 105.03 51.727 24.089 121.4 5.938 149.11-49.195 16.752-34.54 5.471-77.24-16.875-105.69-24.579-37.052-57.203-66.934-85.279-100.45-0.86907 1.3676-1.7381 2.7352-2.6072 4.1028z" color="#000000" color-rendering="auto" fill="#fff" image-rendering="auto" shape-rendering="auto" solid-color="#000000" style="isolation:auto;mix-blend-mode:normal"/>
  <path d="m681.5 712.53c2e-5 45.164-42.062 81.776-93.947 81.776-51.886 0-93.947-36.612-93.947-81.776 0-45.163 64.293-95.509 93.947-142.95 42.563 47.442 93.947 97.788 93.947 142.95z" color="#000000" color-rendering="auto" fill="#f44336" image-rendering="auto" shape-rendering="auto" solid-color="#000000" style="isolation:auto;mix-blend-mode:normal"/>
  <circle cx="643.53" cy="626.61" r="35.705" color="#000000" color-rendering="auto" fill="#fff" image-rendering="auto" shape-rendering="auto" solid-color="#000000" style="isolation:auto;mix-blend-mode:normal"/>
  <rect transform="rotate(90)" x="617.76" y="-668.78" width="17.706" height="50.494" ry="7.3774" color="#000000" color-rendering="auto" fill="#f44336" image-rendering="auto" shape-rendering="auto" solid-color="#000000" style="isolation:auto;mix-blend-mode:normal"/>
  <path d="m934.66 547.77c-29.826 53.91-85.381 89.423-105.29 150.41-11.003 45.659 20.014 92.484 59.474 108.05 53.441 24.783 125.42 6.109 154.05-50.612 17.307-35.534 5.6523-79.463-17.434-108.73-25.394-38.119-59.099-68.861-88.106-103.34-0.8979 1.407-1.7957 2.814-2.6936 4.221z" color="#000000" color-rendering="auto" fill="#7cb342" image-rendering="auto" shape-rendering="auto" solid-color="#000000" style="isolation:auto;mix-blend-mode:normal"/>
  <ellipse cx="991.71" cy="628.43" rx="37.444" ry="37.56" color="#000000" color-rendering="auto" fill="#7cb342" image-rendering="auto" shape-rendering="auto" solid-color="#000000" style="isolation:auto;mix-blend-mode:normal"/>
  <path d="m929.36 548.58c-28.869 52.401-82.642 86.921-101.91 146.2-10.65 44.381 19.372 89.896 57.567 105.03 51.727 24.089 121.4 5.938 149.11-49.195 16.752-34.54 5.4709-77.24-16.875-105.69-24.579-37.052-57.203-66.934-85.279-100.45-0.8691 1.3676-1.7381 2.7352-2.6072 4.1028z" color="#000000" color-rendering="auto" fill="#fff" image-rendering="auto" shape-rendering="auto" solid-color="#000000" style="isolation:auto;mix-blend-mode:normal"/>
  <path d="m1027.8 712.53c0 45.164-42.062 81.776-93.947 81.776-51.886 0-93.947-36.612-93.947-81.776 0-45.163 64.293-95.509 93.947-142.95 42.563 47.442 93.947 97.788 93.947 142.95z" color="#000000" color-rendering="auto" fill="#f44336" image-rendering="auto" shape-rendering="auto" solid-color="#000000" style="isolation:auto;mix-blend-mode:normal"/>
  <path d="m933.71 661.32c-17.127 0-30.708 5.5812-40.747 16.748-3.9964 4.4387-7.1858 9.7877-9.5646 16.048-2.3788 6.2141-3.5683 12.292-3.5683 18.225 0 12.989 4.403 24.387 13.205 34.199 0.6222 0.69214 1.2587 1.3626 1.9079 2.0119l45.528 45.528c42.294-2.5831 76.865-29.511 85.303-64.804l-53.213-53.213c-9.8295-9.8295-22.78-14.743-38.85-14.743z" fill="#d32f2f"/>
  <path d="m933.71 661.32c-17.127 0-30.708 5.5811-40.747 16.748-3.9964 4.4387-7.1858 9.7877-9.5646 16.048-2.3788 6.2141-3.5683 12.292-3.5683 18.225 0 12.989 4.403 24.387 13.205 34.199 10.039 11.167 23.596 16.751 40.675 16.751 17.127 0 30.712-5.5847 40.751-16.751 8.8016-9.8118 13.201-21.21 13.201-34.199 0-13.036-4.3994-24.462-13.201-34.274-10.038-11.167-23.623-16.748-40.751-16.748zm0 24.179c8.421 0 15.441 3.128 21.055 9.3888 4.377 4.9059 6.5629 10.726 6.5629 17.454 0 6.5879-2.1859 12.38-6.5629 17.379-5.4712 6.2608-12.491 9.3924-21.055 9.3924s-15.556-3.1566-20.98-9.4641c-4.377-5.0928-6.5664-10.86-6.5664-17.307 0-3.1304 0.5724-6.2156 1.7142-9.2525 1.9982-5.3264 5.353-9.5792 10.063-12.756 4.7101-3.2239 9.9645-4.8343 15.769-4.8343z" fill="#fff"/>
  <circle cx="989.78" cy="626.61" r="35.705" color="#000000" color-rendering="auto" fill="#fff" image-rendering="auto" shape-rendering="auto" solid-color="#000000" style="isolation:auto;mix-blend-mode:normal"/>
  <rect transform="rotate(90)" x="617.76" y="-1015" width="17.706" height="50.494" ry="7.3774" color="#000000" color-rendering="auto" fill="#f44336" image-rendering="auto" shape-rendering="auto" solid-color="#000000" style="isolation:auto;mix-blend-mode:normal"/>
  <path d="m198.86 655.59v93.928l44.355 44.355c40.638-3.6584 73.566-29.868 82.032-64.004l-67.031-67.031-21.675-7.2478h-37.681z" fill="#d32f2f"/>
  <path d="m273.08 722.81q0 10.528-6.2087 17.134-8.9919 9.5645-27.404 9.5645h-40.606v-93.925h37.68q27.404 0 27.404 24.496 0 7.3626-2.9973 12.317-2.4978 4.1974-7.7073 7.1562 11.704 2.3395 15.986 9.014 3.8537 6.124 3.8537 14.244zm-32.542-39.496q0-6.3993-5.9946-8.4635-2.1409-0.68809-5.7092-0.68809h-4.6387v18.372h4.6387q6.5655 0 9.4201-3.0964 2.2836-2.4771 2.2836-6.124zm7.2078 37.845q0-8.1883-8.7778-9.6333-2.7832-0.41284-9.5628-0.41284h-5.2096v19.817h5.6378q9.7055 0 13.559-2.2019 4.3532-2.4771 4.3532-7.569z" fill="#fff"/>
  <path d="m552.66 670.22-22.629 81.01 41.93 41.93c5.0758 0.73867 10.28 1.144 15.597 1.144 47.959 0 87.497-31.288 93.21-71.689l-48.318-48.318c-2.7177-2.7177-6.5-4.0776-11.347-4.0776h-22.758v29.006l-29.006-29.006h-16.68z" fill="#d32f2f"/>
  <path d="m552.66 670.22-22.629 81.01h16.163l4.0525-14.126h21.119l3.7943 14.126h16.332l-22.152-81.01h-16.68zm45.685 0v81.01h24.526c7.4133 0 12.93-2.7525 16.551-8.252 2.4998-3.7982 3.7476-8.722 3.7476-14.775 0-4.6686-0.77585-8.7653-2.3275-12.287-1.724-3.8378-4.9419-6.4298-9.6542-7.775 2.0976-1.7013 3.6493-3.7585 4.655-6.1719 1.2068-2.8487 1.8111-6.3891 1.8111-10.622 0-14.085-5.5168-21.127-16.551-21.127h-22.758zm15.303 16.023h2.8009c1.4367 0 2.5844 0.19967 3.4464 0.59532 2.4136 1.1869 3.6221 3.6185 3.6221 7.298 0 2.0969-0.46122 3.8582-1.3807 5.2826-1.1494 1.7804-3.0443 2.6718-5.6878 2.6718h-2.8009v-15.848zm-52.754 9.0194 6.3333 25.817h-12.756l6.423-25.817zm52.754 22.852h3.1451c2.7297 0 4.6569 0.1177 5.7775 0.35504 3.5342 0.83087 5.3005 3.6012 5.3005 8.3094 0 2.9278-0.87596 5.1026-2.6287 6.527-1.5516 1.2661-4.2832 1.9007-8.191 1.9007h-3.4034v-17.092z" fill="#fff"/>
 </g>
</svg>
